REM MD5 b124bbe873611817b7e1c3705a6cdf67
FILE "NBA Power Dunkers 2 (Japan).bin" BINARY
  TRACK 01 MODE2/2352
    INDEX 01 00:00:00
  TRACK 02 AUDIO
    INDEX 00 22:21:29
    INDEX 01 22:23:29
  TRACK 03 AUDIO
    INDEX 00 23:00:58
    INDEX 01 23:02:58
  TRACK 04 AUDIO
    INDEX 00 23:40:21
    INDEX 01 23:42:21
  TRACK 05 AUDIO
    INDEX 00 27:09:20
    INDEX 01 27:11:20
REM LEADOUT 30:11:22
